<svg width="36" height="33" viewBox="0 0 36 33" fill="currentColor" xmlns="http://www.w3.org/2000/svg">
<path d="M23.8424 1.75709C23.6455 1.09323 22.9974 0.487367 22.1689 0.184437C21.7506 0.0361947 21.5701 0.00396813 20.9795 0.0104134C19.667 0.0104134 20.5529 -0.608337 9.97088 7.69323C3.58885 12.7012 0.496274 15.1698 0.356821 15.3696C0.0368987 15.8401 -0.0779451 16.388 0.0533049 16.8778C0.110727 17.0969 0.25018 17.4128 0.356821 17.5739C0.496274 17.7737 3.58885 20.2423 9.97088 25.2503C20.5529 33.5518 19.667 32.9331 20.9795 32.9331C21.5701 32.9331 21.7506 32.9073 22.1853 32.7526C23.6947 32.2112 24.3346 30.7674 23.5881 29.588C23.4814 29.4204 20.5693 27.0872 15.2537 22.9042L7.07518 16.4717L15.2537 10.0393C20.5939 5.83698 23.4814 3.52311 23.5881 3.35553C23.8916 2.86569 23.99 2.25983 23.8424 1.75709Z" fill="#CA0000"/>
<path d="M35.8424 1.75709C35.6455 1.09323 34.9974 0.487367 34.1689 0.184437C33.7506 0.0361947 33.5701 0.00396813 32.9795 0.0104134C31.667 0.0104134 32.5529 -0.608337 21.9709 7.69323C15.5889 12.7012 12.4963 15.1698 12.3568 15.3696C12.0369 15.8401 11.9221 16.388 12.0533 16.8778C12.1107 17.0969 12.2502 17.4128 12.3568 17.5739C12.4963 17.7737 15.5889 20.2423 21.9709 25.2503C32.5529 33.5518 31.667 32.9331 32.9795 32.9331C33.5701 32.9331 33.7506 32.9073 34.1853 32.7526C35.6947 32.2112 36.3346 30.7674 35.5881 29.588C35.4814 29.4204 32.5693 27.0872 27.2537 22.9042L19.0752 16.4717L27.2537 10.0393C32.5939 5.83698 35.4814 3.52311 35.5881 3.35553C35.8916 2.86569 35.99 2.25983 35.8424 1.75709Z" fill="#CA0000"/>
</svg>
