<svg width="113" height="121" viewBox="0 0 113 121" fill="currentColor" xmlns="http://www.w3.org/2000/svg">
<path d="M59.5856 1.18357C50.2442 2.45925 48.4996 2.83723 45.7834 4.2074C40.925 6.64063 39.3129 8.5069 32.0474 20.177C18.7311 41.58 9.12478 60.4553 3.95725 75.4563C3.31683 77.2753 2.43349 79.8267 1.94765 81.126C-1.0557 89.3942 -0.591951 95.5364 3.38308 100.119C5.83434 102.931 9.16895 104.844 13.5856 105.931C14.8886 106.262 16.8761 106.758 17.9582 107.041C22.3749 108.151 26.5928 109.734 31.672 112.191C41.455 116.939 48.9413 119.278 58.371 120.483C62.0368 120.955 71.5548 120.885 75.1544 120.365C82.8616 119.231 89.5528 117.223 96.3766 113.986C100.197 112.167 105.188 109.262 106.005 108.411C107.705 106.592 106.314 103.285 103.907 103.356C103.2 103.403 102.295 103.805 100.131 105.104C92.247 109.852 83.767 112.876 74.6023 114.223C71.1573 114.742 62.346 114.813 58.923 114.364C49.8909 113.183 43.5088 111.175 33.9025 106.545C27.7191 103.568 23.6999 102.127 16.9644 100.497C12.9011 99.5051 11.024 98.7728 9.21312 97.4735C5.41476 94.7804 4.73017 90.3156 7.11519 83.9135C7.53477 82.756 8.41811 80.2283 9.08062 78.2911C13.7402 64.5894 22.0657 47.8166 33.8141 28.4453C37.215 22.8228 42.1175 15.1451 43.1996 13.7277C44.7013 11.767 47.8151 9.64084 50.3326 8.86125C51.6134 8.45966 68.1319 6.12091 69.6335 6.12091C71.5106 6.12091 74.0282 8.08167 74.5802 9.99519C75.044 11.5544 76.369 20.5313 76.2365 21.1692C75.8169 23.0354 74.4257 24.5001 72.6811 24.9017C72.1952 24.9962 69.9869 24.5473 65.1727 23.3662C61.4406 22.4448 57.9072 21.5235 57.333 21.3109C56.516 21.0274 56.1405 21.0038 55.5443 21.2164C53.8659 21.807 53.9763 21.4527 49.8467 38.4617C46.1146 53.8879 46.0484 54.1714 46.3575 55.1163C47.1967 57.7149 50.6638 57.8331 51.6134 55.3053C51.7459 54.951 53.2918 48.7143 55.0584 41.4619C56.803 34.2094 58.3047 28.209 58.371 28.1381C58.4372 28.0673 60.5572 28.5161 63.0747 29.154C71.2677 31.2092 71.4223 31.2328 73.2111 30.973C77.6719 30.3115 81.139 26.7207 81.8899 21.9724C82.1328 20.4605 82.0886 19.9644 81.4482 15.9956C80.4103 9.42822 80.1453 8.27066 79.3944 6.59338C77.5615 2.62462 73.3436 -0.0921021 69.1035 0.002388C68.419 0.0260162 64.1348 0.545738 59.5856 1.18357Z" fill="#DF424D"/>
<path d="M65.8352 56.2267C56.3614 57.1952 47.6826 63.5264 40.6159 74.6295C37.48 79.5432 37.0825 80.6299 37.8113 82.1654C38.4517 83.4647 40.0417 84.1026 41.3005 83.5356C42.1838 83.134 42.5592 82.6615 44.5467 79.3542C50.0897 70.1174 56.8693 64.3532 64.179 62.6759C66.2769 62.2035 70.3623 62.1562 72.6149 62.5578C77.2745 63.4319 82.9499 66.1722 86.8366 69.4087C87.5433 69.9993 88.4266 70.7316 88.8021 71.0151C89.9946 71.9364 91.7612 71.6529 92.8212 70.3536C93.7046 69.2905 96.7742 67.0463 98.9163 65.8887C102.295 64.0933 105.144 63.2665 109.273 62.9358C111.327 62.7468 111.946 62.4633 112.586 61.3294C113.138 60.3608 113.138 59.3686 112.586 58.4C111.857 57.1007 111.283 56.8645 109.008 56.8881C103.488 56.959 97.4588 59.156 92.3575 62.9358L90.3479 64.4241L88.1616 62.8885C82.6408 59.0143 76.877 56.7464 71.1573 56.2267C69.7219 56.0849 68.3748 55.9904 68.1982 55.9904C68.0215 56.0141 66.9615 56.1322 65.8352 56.2267Z" fill="#DF424D"/>
<path d="M93.6162 89.7722C93.3291 89.8903 92.4016 90.6699 91.5845 91.4967C86.9691 96.1742 81.1832 98.5602 74.4919 98.5602C71.2456 98.5602 68.7281 98.135 65.2831 97.0483C63.3177 96.434 62.8981 96.3632 62.1914 96.5758C60.9989 96.9774 60.248 98.0405 60.248 99.3634C60.248 101.49 61.1314 102.245 64.8856 103.309C69.7881 104.702 75.3532 105.08 79.7919 104.301C86.0636 103.19 92.7991 99.3634 96.465 94.8749C97.9004 93.1031 97.4808 90.7171 95.5816 89.8903C94.5658 89.4651 94.367 89.4415 93.6162 89.7722Z" fill="#DF424D"/>
</svg>
