<svg width="188"  height="34" viewBox="0 0 188 34" fill="none" xmlns="http://www.w3.org/2000/svg">
<path d="M5.99586 5.53477C5.933 4.57864 5.87014 3.64983 5.77586 2.77566C3.70153 2.58444 2.31865 2.39321 1.69006 2.25662C1.03005 2.09272 0.715759 1.84686 0.715759 1.601C0.715759 1.46441 0.778617 1.32782 0.935763 1.21855C1.09291 1.10928 1.31291 1.05464 1.59578 1.05464C1.78435 1.05464 2.60151 1.10927 4.01582 1.24586C5.46156 1.38245 6.78159 1.43709 8.00733 1.43709C9.20163 1.43709 10.9931 1.35514 13.3503 1.21855C15.7075 1.08196 17.4989 1 18.6304 1C23.3133 1 26.8648 1.68295 29.2849 3.02152C31.7049 4.38741 32.9307 6.35431 32.9307 8.97682C32.9307 11.4081 31.7992 13.4843 29.5677 15.1507C27.3048 16.8171 24.2562 17.8825 20.3904 18.2922L27.6506 27.1159C29.1592 28.9189 30.2592 30.0662 30.9506 30.5306C31.6735 31.0223 32.3964 31.2682 33.0878 31.2682C33.465 31.2682 33.905 31.2136 34.345 31.077C34.785 30.9404 35.0364 30.8858 35.1307 30.8858C35.2878 30.8858 35.4136 30.9404 35.5079 31.0223C35.6021 31.1043 35.665 31.2409 35.665 31.3775C35.665 31.8146 35.0364 32.3609 33.8107 33.0166C32.5535 33.6722 31.3592 34 30.1649 34C27.4934 34 24.5391 32.0058 21.2704 27.9901L21.0819 27.7169L13.7903 18.702C13.6331 18.4834 13.476 18.3195 13.4131 18.1829C12.9731 18.0737 12.596 17.9917 12.2188 17.9098V22.7997C12.2188 24.548 12.2503 26.1324 12.2817 27.6076C12.3446 29.0828 12.4388 30.4487 12.596 31.7053C14.7332 31.9512 16.1161 32.1424 16.7446 32.3063C17.3732 32.4702 17.6561 32.6887 17.6561 32.9346C17.6561 33.0712 17.5618 33.2078 17.4046 33.2897C17.2475 33.3717 17.0589 33.4263 16.7761 33.4263C16.6189 33.4263 16.2732 33.399 15.7389 33.3717C13.476 33.1805 11.276 33.0712 9.20163 33.0712C7.06445 33.0712 4.86441 33.1531 2.60151 33.3717C2.06721 33.4263 1.75292 33.4263 1.59578 33.4263C1.31291 33.4263 1.09291 33.3717 0.935763 33.2897C0.778617 33.2078 0.715759 33.0712 0.715759 32.9346C0.715759 32.6614 1.06148 32.4156 1.75292 32.2516C2.44436 32.0877 3.79582 31.8965 5.77586 31.7326C5.90157 30.4487 5.99586 29.0555 6.05872 27.5803C6.12158 26.1051 6.15301 24.5207 6.15301 22.7997V20.0952C6.75016 19.2483 7.50446 18.6747 8.38448 17.7459C9.26449 16.8444 9.57878 16.1614 10.5845 15.3692C10.8988 15.1233 10.9617 14.7409 11.3702 14.7409H11.8417C11.9988 14.7409 12.0617 14.8502 12.2188 14.8502C12.816 14.8502 12.9417 14.1126 13.5389 14.1126C14.6075 14.1126 15.0789 14.8775 16.1475 14.8775H19.259C20.1076 14.8775 20.5161 14.3584 21.3962 14.3584C21.8676 14.3584 22.0876 14.7136 22.559 14.7136C23.1562 14.7136 23.3448 14.2765 23.8162 13.976C24.1619 13.7574 24.5391 13.8667 24.7591 13.5662C25.1048 13.1565 24.8219 12.6374 25.2934 12.3369V11.7086C25.1362 11.5993 25.0419 11.4627 24.9791 11.2988C24.8848 10.9437 24.8534 10.7252 24.8534 10.37C24.8534 10.0422 25.1362 9.87831 25.2619 9.60513C25.4819 9.14073 25.3562 8.81291 25.6077 8.37583C25.8591 7.96606 25.9848 7.69288 26.0791 7.22848C26.0791 7.22848 26.3934 6.32698 26.3934 6.02649V4.68791C26.3934 4.19619 25.9848 3.15811 25.8591 3.02152C25.8591 3.02152 25.8277 5.42549 25.3877 6.02649C24.8219 6.79139 24.4134 7.20116 23.5333 7.69288C23.0305 7.96606 22.9048 8.51242 22.3076 8.51242C21.8047 8.51242 21.8676 7.93874 21.7419 7.52897C21.6162 7.14652 21.4276 6.92798 21.3333 6.54553C20.5476 7.11921 21.0504 7.77483 20.1076 8.12997C19.7933 8.23924 18.8504 8.34851 18.5047 8.34851C18.2218 8.34851 18.0961 8.1846 17.8447 8.10265C16.8704 7.74752 16.1789 7.74752 15.3932 7.17384C14.7646 6.70944 14.0103 6.51821 14.0103 5.80795C14.0103 5.37086 14.6389 5.37086 15.016 5.09768C15.5189 4.76987 15.7389 4.38742 15.7389 3.86838C15.7389 3.64983 15.676 3.54056 15.5503 3.34934C14.9532 3.92301 14.576 4.22351 13.8846 4.68791C13.5389 4.90646 13.5389 5.37086 13.0989 5.37086C12.7846 5.37086 12.5646 5.15232 12.5646 4.87914C12.5646 4.3601 12.9731 4.11424 12.9731 3.62252C12.9731 2.99421 12.5646 2.66639 12.0303 2.2293C11.8731 2.12003 11.8417 1.92881 11.6531 1.92881C11.4331 1.92881 11.4331 2.17467 11.276 2.28394C10.836 2.63908 10.4902 2.91225 10.4902 3.43129V4.11424C10.4902 4.38741 10.8045 4.46937 10.8045 4.74255C10.8045 5.01573 10.5531 5.20695 10.2388 5.20695C10.0188 5.20695 9.89308 5.04305 9.67307 5.04305H7.81875C7.09588 5.09769 6.62444 5.31623 5.99586 5.53477Z" fill="url(#paint0_linear_41_165)"/>
<path d="M49.0246 22.4677C49.0246 24.1872 49.0558 25.7456 49.087 27.1965C49.1494 28.6474 49.2429 29.9908 49.3989 31.2267C51.6763 31.4685 53.0801 31.6566 53.6105 31.8178C54.1408 31.9521 54.4216 32.1671 54.4216 32.4089C54.4216 32.5701 54.328 32.6776 54.172 32.785C54.016 32.8925 53.8289 32.9463 53.5481 32.9463C53.3921 32.9463 53.0489 32.9194 52.5186 32.8925C50.2724 32.7045 48.0887 32.597 46.0297 32.597C43.9083 32.597 41.7245 32.6776 39.4784 32.8925C38.948 32.9463 38.6361 32.9463 38.4801 32.9463C38.1993 32.9463 37.9809 32.8925 37.8249 32.785C37.669 32.7044 37.6066 32.5701 37.6066 32.4089C37.6066 32.1402 37.9185 31.9253 38.5737 31.7909C39.2288 31.6297 40.5703 31.4685 42.6292 31.2804C42.754 30.0176 42.8476 28.6474 42.91 27.1965C42.9724 25.7456 43.0036 24.1872 43.0036 22.4945V11.4517C43.0036 9.75902 42.9724 8.22754 42.91 6.77666C42.8476 5.35264 42.754 4.00924 42.6292 2.74643C40.6638 2.55835 39.3224 2.37028 38.6361 2.20907C37.9497 2.04786 37.6066 1.80605 37.6066 1.53736C37.6066 1.40302 37.669 1.26868 37.8249 1.16121C37.9809 1.05374 38.2305 1 38.4801 1C38.6049 1 38.948 1.02687 39.4472 1.05374C41.6933 1.26869 43.8771 1.37615 46.0297 1.37615C48.1199 1.37615 50.2724 1.26869 52.5498 1.05374C53.0801 1 53.4233 1 53.5793 1C53.8289 1 54.0472 1.05374 54.2032 1.16121C54.3592 1.26868 54.4528 1.37615 54.4528 1.53736C54.4528 1.80605 54.1096 2.04786 53.4233 2.20907C52.737 2.37028 51.3955 2.55835 49.4301 2.74643C49.3053 3.98237 49.1806 5.32578 49.1182 6.77666C49.0558 8.20067 49.0558 9.78589 49.0558 11.4786V16.5298H66.9939V11.4786C66.9939 9.78589 66.9627 8.25441 66.9003 6.80353C66.8379 5.37951 66.7443 4.03611 66.6195 2.7733C64.6541 2.58522 63.3127 2.39715 62.6263 2.23594C61.94 2.07473 61.5968 1.83292 61.5968 1.56423C61.5968 1.40302 61.6592 1.29555 61.8152 1.18808C61.9712 1.08061 62.1584 1.02687 62.4392 1.02687C62.5639 1.02687 62.9071 1.05373 63.4375 1.0806C65.7148 1.29555 67.9298 1.40302 70.02 1.40302C72.1101 1.40302 74.2627 1.29555 76.5401 1.0806C77.0704 1.02686 77.4136 1.02687 77.5696 1.02687C77.8191 1.02687 78.0063 1.08061 78.1623 1.18808C78.3183 1.26869 78.3807 1.40302 78.3807 1.56423C78.3807 1.83292 78.0375 2.07473 77.3512 2.23594C76.6649 2.39715 75.3546 2.58522 73.4204 2.7733C73.2956 4.17045 73.1708 5.59446 73.0772 7.04534C73.0149 8.49622 72.9837 9.97397 72.9837 11.4786V22.5214C72.9837 24.0529 73.0149 25.5306 73.0772 27.0084C73.1708 28.4593 73.2644 29.9102 73.4204 31.3073C75.6666 31.5491 77.0704 31.7372 77.5696 31.8715C78.0999 32.0059 78.3807 32.2208 78.3807 32.4626C78.3807 32.6238 78.3183 32.7313 78.1623 32.8388C78.0375 32.9463 77.8191 33 77.5696 33C77.4448 33 77.1016 32.9731 76.5401 32.9463C74.2939 32.7582 72.1101 32.6507 70.0512 32.6507C67.9298 32.6507 65.746 32.7313 63.4687 32.9463C62.9383 33 62.5951 33 62.4392 33C62.1896 33 61.9712 32.9463 61.8152 32.8388C61.6592 32.7582 61.5968 32.6238 61.5968 32.4626C61.5968 32.194 61.9088 31.979 62.5639 31.8447C63.2191 31.6835 64.5605 31.4954 66.6507 31.3073C66.7755 30.0445 66.8379 28.7011 66.9003 27.2502C66.9627 25.7993 66.9939 24.241 66.9939 22.5483V17.6583H49.0558V22.4677H49.0246Z" fill="url(#paint1_linear_41_165)"/>
<path d="M87.5513 11.4517C87.5513 9.75902 87.5207 8.22754 87.4596 6.77666C87.3985 5.35264 87.3068 4.00924 87.1845 2.74643C85.2591 2.55835 83.9449 2.37028 83.2725 2.20907C82.6002 2.04786 82.264 1.80605 82.264 1.53736C82.264 1.40302 82.3251 1.26868 82.4779 1.16121C82.6307 1.05374 82.8447 1 83.1197 1C83.242 1 83.5782 1.02687 84.0672 1.05374C86.2677 1.26869 88.4071 1.37615 90.5159 1.37615C92.5636 1.37615 94.6724 1.26869 96.9035 1.05374C97.423 1 97.7592 1 97.912 1C98.1565 1 98.3705 1.05374 98.5233 1.16121C98.6761 1.26868 98.7678 1.37615 98.7678 1.53736C98.7678 1.80605 98.4316 2.04786 97.7592 2.20907C97.0868 2.37028 95.7726 2.55835 93.8472 2.74643C93.725 3.98237 93.6027 5.32578 93.5416 6.77666C93.4805 8.20067 93.4804 9.78589 93.4804 11.4786V22.5214C93.4804 24.241 93.511 25.7993 93.5416 27.2502C93.6027 28.7011 93.6944 30.0445 93.8472 31.2804C96.0783 31.5223 97.4536 31.7103 97.9732 31.8715C98.4927 32.0059 98.7678 32.2208 98.7678 32.4626C98.7678 32.6238 98.6761 32.7582 98.5233 32.8388C98.3705 32.9463 98.1871 33 97.912 33C97.7592 33 97.423 32.9731 96.9035 32.9463C94.703 32.7582 92.5636 32.6507 90.5464 32.6507C88.4682 32.6507 86.3288 32.7313 84.1283 32.9463C83.6087 33 83.3031 33 83.1503 33C82.8752 33 82.6613 32.9463 82.5085 32.8388C82.3557 32.7582 82.2945 32.6238 82.2945 32.4626C82.2945 32.194 82.6002 31.979 83.242 31.8447C83.8838 31.6835 85.198 31.5222 87.2151 31.3342C87.3374 30.0714 87.429 28.7011 87.4902 27.2502C87.5513 25.7993 87.5819 24.241 87.5819 22.5483V11.4517H87.5513Z" fill="url(#paint2_linear_41_165)"/>
<path d="M108.944 7.44234L109.128 17.1194C109.19 20.2727 109.344 23.154 109.589 25.7364C109.835 28.3188 110.112 30.276 110.419 31.6351C112.662 31.7982 114.137 31.9613 114.844 32.1244C115.581 32.2875 115.95 32.5049 115.95 32.804C115.95 32.9671 115.888 33.0758 115.735 33.1845C115.612 33.2932 115.397 33.3476 115.151 33.3476C115.12 33.3476 114.352 33.2932 112.846 33.1845C111.372 33.0758 109.866 33.0214 108.36 33.0214C106.885 33.0214 105.411 33.0758 103.874 33.1845C102.369 33.2932 101.57 33.3476 101.539 33.3476C101.293 33.3476 101.078 33.2932 100.925 33.1845C100.771 33.103 100.709 32.9671 100.709 32.804C100.709 32.5321 101.017 32.3419 101.631 32.1788C102.246 32.0157 103.751 31.8254 106.117 31.6351C106.578 28.9168 106.947 26.2801 107.162 23.7249C107.408 21.1697 107.5 18.7776 107.5 16.5486V5.94729C107.377 5.81137 107.223 5.64828 107.039 5.43081C105.441 3.74547 103.997 2.71252 102.676 2.35914C102.553 2.33196 102.399 2.27759 102.184 2.22323C101.385 2.03295 101.017 1.7883 101.017 1.54366C101.017 1.38056 101.078 1.27183 101.232 1.1631C101.385 1.05437 101.57 1 101.816 1C101.877 1 102.461 1.05437 103.628 1.1631C104.796 1.27183 105.933 1.3262 107.039 1.3262C107.531 1.3262 108.053 1.3262 108.606 1.29901C109.159 1.27183 109.743 1.24465 110.358 1.19028L133.341 25.4918L133.126 17.2825C133.064 14.1565 132.911 11.3023 132.665 8.69276C132.419 6.0832 132.143 4.12603 131.805 2.79407C129.685 2.63097 128.24 2.46788 127.441 2.2776C126.643 2.1145 126.274 1.86985 126.274 1.54366C126.274 1.38056 126.335 1.27183 126.489 1.1631C126.643 1.05437 126.827 1 127.104 1C127.134 1 127.902 1.05437 129.377 1.19028C130.883 1.3262 132.358 1.38056 133.863 1.38056C135.338 1.38056 136.813 1.3262 138.349 1.19028C139.886 1.05437 140.654 1 140.685 1C140.93 1 141.146 1.05437 141.268 1.1631C141.422 1.24465 141.484 1.38056 141.484 1.54366C141.484 1.84267 141.115 2.08732 140.347 2.2776C139.578 2.4407 138.134 2.63097 136.045 2.79407C135.584 5.48517 135.246 8.09473 135.031 10.6499C134.785 13.1779 134.693 15.57 134.693 17.8262V30.0313C134.693 31.0643 134.724 32.0428 134.816 32.9942C134.847 33.1302 134.847 33.2389 134.847 33.2661C134.847 33.4835 134.785 33.6466 134.662 33.7825C134.57 33.9185 134.447 34 134.324 34C134.263 34 134.201 33.9728 134.14 33.9456C134.078 33.8913 133.986 33.8369 133.925 33.7282L108.944 7.44234Z" fill="url(#paint3_linear_41_165)"/>
<path d="M150.332 17.5268C150.332 22.3293 151.468 26.1122 153.739 28.8488C156.041 31.5854 159.164 32.9537 163.106 32.9537C167.112 32.9537 170.329 31.5854 172.694 28.822C175.091 26.0585 176.29 22.2756 176.29 17.5537C176.29 12.7512 175.154 8.99512 172.852 6.25854C170.581 3.52195 167.458 2.12683 163.516 2.12683C159.51 2.12683 156.325 3.52196 153.928 6.3122C151.531 9.07562 150.332 12.8049 150.332 17.5268ZM162.633 34C159.763 34 157.176 33.6244 154.843 32.8732C152.509 32.122 150.427 30.9951 148.598 29.4659C146.894 28.0707 145.601 26.4073 144.718 24.5293C143.867 22.6244 143.425 20.5049 143.425 18.1439C143.425 15.622 143.898 13.3415 144.844 11.3024C145.791 9.26342 147.178 7.46586 149.008 5.90976C150.932 4.30001 153.139 3.06586 155.663 2.23415C158.186 1.40244 160.961 1 163.989 1C166.828 1 169.414 1.37561 171.779 2.12683C174.113 2.87805 176.195 4.00488 177.993 5.48049C179.727 6.92927 181.052 8.61951 181.935 10.5244C182.818 12.4293 183.228 14.522 183.228 16.8561C183.228 21.9805 181.336 26.1122 177.583 29.2512C173.798 32.4439 168.815 34 162.633 34Z" fill="url(#paint4_linear_41_165)"/>
<path d="M187.112 1.5C187.112 2.33333 186.245 3 185.17 3C184.095 3 183.228 2.33333 183.228 1.5C183.228 0.666663 184.095 0 185.17 0C186.275 0.0238095 187.112 0.666663 187.112 1.5ZM183.736 1.5C183.736 2.16666 184.364 2.69047 185.2 2.69047C186.006 2.69047 186.634 2.16666 186.634 1.5C186.634 0.83333 186.006 0.28571 185.17 0.28571C184.364 0.309519 183.736 0.85714 183.736 1.5ZM184.901 2.28571H184.453V0.785711C184.632 0.761901 184.871 0.738096 185.17 0.738096C185.529 0.738096 185.678 0.785715 185.827 0.857144C185.947 0.928572 186.006 1.02381 186.006 1.16666C186.006 1.35714 185.827 1.47619 185.618 1.52381V1.54762C185.797 1.59524 185.887 1.71428 185.947 1.90476C186.006 2.14286 186.036 2.21428 186.096 2.2619H185.648C185.588 2.21428 185.558 2.07143 185.499 1.90476C185.469 1.7619 185.349 1.66667 185.11 1.66667H184.901V2.28571ZM184.901 1.45238H185.11C185.349 1.45238 185.558 1.38095 185.558 1.23809C185.558 1.09523 185.439 0.999995 185.17 0.999995C185.051 0.999995 184.961 0.999997 184.931 1.02381V1.45238H184.901Z" fill="url(#paint5_linear_41_165)"/>
<defs>
<linearGradient id="paint0_linear_41_165" x1="18.1904" y1="1" x2="18.1904" y2="34" gradientUnits="userSpaceOnUse">
<stop stop-color="#FF0303"/>
<stop offset="0.655" stop-color="#990202"/>
</linearGradient>
<linearGradient id="paint1_linear_41_165" x1="57.9936" y1="1" x2="57.9936" y2="33" gradientUnits="userSpaceOnUse">
<stop stop-color="#FF0303"/>
<stop offset="0.655" stop-color="#990202"/>
</linearGradient>
<linearGradient id="paint2_linear_41_165" x1="90.5159" y1="1" x2="90.5159" y2="33" gradientUnits="userSpaceOnUse">
<stop stop-color="#FF0303"/>
<stop offset="0.655" stop-color="#990202"/>
</linearGradient>
<linearGradient id="paint3_linear_41_165" x1="121.096" y1="1" x2="121.096" y2="34" gradientUnits="userSpaceOnUse">
<stop stop-color="#FF0303"/>
<stop offset="0.655" stop-color="#990202"/>
</linearGradient>
<linearGradient id="paint4_linear_41_165" x1="163.327" y1="1" x2="163.327" y2="34" gradientUnits="userSpaceOnUse">
<stop stop-color="#FF0303"/>
<stop offset="0.655" stop-color="#990202"/>
</linearGradient>
<linearGradient id="paint5_linear_41_165" x1="185.17" y1="0" x2="185.17" y2="3" gradientUnits="userSpaceOnUse">
<stop stop-color="#FF0303"/>
<stop offset="0.655" stop-color="#990202"/>
</linearGradient>
</defs>
</svg>
