<svg width="36" height="33" viewBox="0 0 36 33" fill="currentColor" xmlns="http://www.w3.org/2000/svg">
<path d="M0.0675445 31.1864C0.264421 31.8503 0.912467 32.4561 1.74098 32.759C2.15934 32.9073 2.33981 32.9395 2.93044 32.9331C4.24294 32.9331 3.357 33.5518 13.939 25.2503C20.3211 20.2422 23.4136 17.7737 23.5531 17.5739C23.873 17.1034 23.9879 16.5555 23.8566 16.0657C23.7992 15.8465 23.6597 15.5307 23.5531 15.3696C23.4136 15.1698 20.3211 12.7012 13.939 7.69322C3.357 -0.608339 4.24294 0.0104085 2.93044 0.0104085C2.33981 0.0104085 2.15934 0.036192 1.72458 0.190878C0.215202 0.732283 -0.424643 2.17603 0.321842 3.35553C0.428483 3.52311 3.34059 5.85631 8.65622 10.0393L16.8347 16.4717L8.65622 22.9042C3.31598 27.1065 0.428483 29.4204 0.321842 29.588C0.0183272 30.0778 -0.080111 30.6837 0.0675445 31.1864Z" fill="#CA0000"/>
<path d="M12.0675 31.1864C12.2644 31.8503 12.9125 32.4561 13.741 32.759C14.1593 32.9073 14.3398 32.9395 14.9304 32.9331C16.2429 32.9331 15.357 33.5518 25.939 25.2503C32.3211 20.2422 35.4136 17.7737 35.5531 17.5739C35.873 17.1034 35.9879 16.5555 35.8566 16.0657C35.7992 15.8465 35.6597 15.5307 35.5531 15.3696C35.4136 15.1698 32.3211 12.7012 25.939 7.69322C15.357 -0.608339 16.2429 0.0104085 14.9304 0.0104085C14.3398 0.0104085 14.1593 0.036192 13.7246 0.190878C12.2152 0.732283 11.5754 2.17603 12.3218 3.35553C12.4285 3.52311 15.3406 5.85631 20.6562 10.0393L28.8347 16.4717L20.6562 22.9042C15.316 27.1065 12.4285 29.4204 12.3218 29.588C12.0183 30.0778 11.9199 30.6837 12.0675 31.1864Z" fill="#CA0000"/>
</svg>
