<svg width="48" height="39" viewBox="0 0 48 39" fill="currentColor" xmlns="http://www.w3.org/2000/svg">
<g filter="url(#filter0_b_9_160)">
<g clip-path="url(#clip0_9_160)">
<path d="M16.8281 0.045723C11.2125 0.487518 6.8625 2.4299 3.54375 5.97951C1.84688 7.80002 0.609379 10.2528 0.178129 12.6826C3.88548e-06 13.6576 0.0281289 15.9961 0.225004 16.9483C0.890629 20.1627 2.55938 22.8059 5.34375 25.0606C8.79375 27.8713 13.125 29.3338 18.0469 29.3414C20.7656 29.349 23.0438 28.9606 25.4438 28.0922L26.2688 27.7875L32.7094 33.0053C38.8781 38.0098 39.1688 38.2307 39.8438 38.4973C42.1031 39.3885 44.5688 39.061 46.3219 37.6365C48.075 36.2121 48.4781 34.2088 47.3813 32.3731C47.0531 31.8246 46.7813 31.5885 40.6219 26.5764L34.2 21.3434L34.575 20.6731C35.6438 18.7155 36.1313 16.8035 36.1219 14.625C36.0844 10.6184 34.3031 7.14494 30.7969 4.30373C28.0781 2.08713 24.6188 0.655098 20.8594 0.182831C19.9969 0.0761909 17.5125 -0.00759888 16.8281 0.045723ZM20.2969 5.67482C22.5844 6.05568 24.6563 6.98498 26.25 8.34846C27.8438 9.70432 28.8844 11.4106 29.2594 13.2463C29.4094 13.9776 29.3813 15.5467 29.2031 16.3313C28.5844 19.1725 26.2875 21.6405 23.0813 22.9201C20.4938 23.9561 17.4375 24.1465 14.6625 23.4533C9.61876 22.1889 6.19688 17.9309 6.83438 13.711C7.49063 9.40725 11.4 6.15471 16.65 5.56818C17.5313 5.46916 19.3875 5.52248 20.2969 5.67482Z" fill="white"/>
</g>
</g>
<defs>
<filter id="filter0_b_9_160" x="-4" y="-4" width="56" height="47" filterUnits="userSpaceOnUse" color-interpolation-filters="sRGB">
<feFlood flood-opacity="0" result="BackgroundImageFix"/>
<feGaussianBlur in="BackgroundImageFix" stdDeviation="2"/>
<feComposite in2="SourceAlpha" operator="in" result="effect1_backgroundBlur_9_160"/>
<feBlend mode="normal" in="SourceGraphic" in2="effect1_backgroundBlur_9_160" result="shape"/>
</filter>
<clipPath id="clip0_9_160">
<rect width="48" height="39" fill="white"/>
</clipPath>
</defs>
</svg>
